<mxfile host="app.diagrams.net" agent="Mozilla/5.0 (Windows NT 10.0; Win64; x64) AppleWebKit/537.36 (KHTML, like Gecko) Chrome/126.0.0.0 Safari/537.36" version="24.7.14">
  <diagram id="kQm1WyOccjyHnlNSDJr9" name="第 1 页">
    <mxGraphModel dx="1709" dy="988" grid="1" gridSize="10" guides="1" tooltips="1" connect="1" arrows="1" fold="1" page="1" pageScale="1" pageWidth="827" pageHeight="1169" math="0" shadow="0">
      <root>
        <mxCell id="0" />
        <mxCell id="1" parent="0" />
        <mxCell id="yK7P3pugAWHu_ZcFfTPJ-107" value="" style="rounded=0;whiteSpace=wrap;html=1;fillColor=#FFECDB;strokeColor=none;fontSize=8;" parent="1" vertex="1">
          <mxGeometry x="856.75" y="568" width="192.25" height="172" as="geometry" />
        </mxCell>
        <mxCell id="yK7P3pugAWHu_ZcFfTPJ-108" value="" style="rounded=0;whiteSpace=wrap;html=1;fillColor=#d5e8d4;strokeColor=none;fontSize=8;" parent="1" vertex="1">
          <mxGeometry x="195" y="204" width="589" height="90" as="geometry" />
        </mxCell>
        <mxCell id="yK7P3pugAWHu_ZcFfTPJ-109" value="" style="rounded=0;whiteSpace=wrap;html=1;fillColor=#f5f5f5;strokeColor=none;fontSize=8;fontColor=#333333;" parent="1" vertex="1">
          <mxGeometry x="190" y="370" width="640" height="440" as="geometry" />
        </mxCell>
        <mxCell id="yK7P3pugAWHu_ZcFfTPJ-110" value="" style="rounded=0;whiteSpace=wrap;html=1;dashed=1;dashPattern=1 2;fontSize=8;fillColor=#e1d5e7;strokeColor=none;" parent="1" vertex="1">
          <mxGeometry x="200" y="425" width="580" height="375" as="geometry" />
        </mxCell>
        <mxCell id="yK7P3pugAWHu_ZcFfTPJ-111" value="" style="rounded=0;whiteSpace=wrap;html=1;dashed=1;dashPattern=1 2;fontSize=8;" parent="1" vertex="1">
          <mxGeometry x="230" y="450" width="520" height="250" as="geometry" />
        </mxCell>
        <mxCell id="yK7P3pugAWHu_ZcFfTPJ-112" value="" style="rounded=0;whiteSpace=wrap;html=1;fillColor=#d5e8d4;strokeColor=none;fontSize=8;" parent="1" vertex="1">
          <mxGeometry x="195" y="322" width="590" height="23" as="geometry" />
        </mxCell>
        <mxCell id="yK7P3pugAWHu_ZcFfTPJ-113" value="" style="rounded=0;whiteSpace=wrap;html=1;fillColor=#ffe6cc;strokeColor=none;fontSize=8;" parent="1" vertex="1">
          <mxGeometry x="210" y="718" width="455" height="61" as="geometry" />
        </mxCell>
        <mxCell id="yK7P3pugAWHu_ZcFfTPJ-115" value="&lt;font style=&quot;font-size: 8px;&quot;&gt;Kubernetes集群&lt;/font&gt;" style="rounded=0;whiteSpace=wrap;html=1;fillColor=none;strokeColor=none;fontSize=8;" parent="1" vertex="1">
          <mxGeometry x="230" y="449" width="66" height="20" as="geometry" />
        </mxCell>
        <mxCell id="yK7P3pugAWHu_ZcFfTPJ-116" value="" style="rounded=0;whiteSpace=wrap;html=1;fillColor=#d5e8d4;strokeColor=none;fontSize=8;" parent="1" vertex="1">
          <mxGeometry x="250" y="470" width="480" height="160" as="geometry" />
        </mxCell>
        <mxCell id="yK7P3pugAWHu_ZcFfTPJ-117" value="业务" style="rounded=0;whiteSpace=wrap;html=1;fillColor=none;strokeColor=none;fontSize=8;" parent="1" vertex="1">
          <mxGeometry x="250" y="472" width="70" height="20" as="geometry" />
        </mxCell>
        <mxCell id="yK7P3pugAWHu_ZcFfTPJ-119" value="内网负载均衡" style="rounded=0;whiteSpace=wrap;html=1;fillColor=#dae8fc;strokeColor=#6c8ebf;fontSize=8;" parent="1" vertex="1">
          <mxGeometry x="200" y="385" width="580" height="20" as="geometry" />
        </mxCell>
        <mxCell id="yK7P3pugAWHu_ZcFfTPJ-120" value="外部" style="rounded=0;whiteSpace=wrap;html=1;strokeColor=none;fillColor=none;fontSize=8;" parent="1" vertex="1">
          <mxGeometry x="856.75" y="568" width="58" height="20" as="geometry" />
        </mxCell>
        <mxCell id="yK7P3pugAWHu_ZcFfTPJ-122" value="" style="endArrow=none;html=1;rounded=0;fontSize=8;entryX=0;entryY=0.5;entryDx=0;entryDy=0;startArrow=none;" parent="1" edge="1">
          <mxGeometry width="50" height="50" relative="1" as="geometry">
            <mxPoint x="843.75" y="606.12" as="sourcePoint" />
            <mxPoint x="843.75" y="606.1200000000001" as="targetPoint" />
          </mxGeometry>
        </mxCell>
        <mxCell id="yK7P3pugAWHu_ZcFfTPJ-131" value="存储" style="rounded=0;whiteSpace=wrap;html=1;strokeColor=none;fillColor=none;fontSize=8;" parent="1" vertex="1">
          <mxGeometry x="216" y="718" width="66" height="20" as="geometry" />
        </mxCell>
        <mxCell id="yK7P3pugAWHu_ZcFfTPJ-132" value="Elasticsearch" style="rounded=0;whiteSpace=wrap;html=1;fillColor=#dae8fc;strokeColor=#6c8ebf;fontSize=8;" parent="1" vertex="1">
          <mxGeometry x="460" y="743" width="139" height="20" as="geometry" />
        </mxCell>
        <mxCell id="yK7P3pugAWHu_ZcFfTPJ-133" value="MySQL" style="rounded=0;whiteSpace=wrap;html=1;fillColor=#dae8fc;strokeColor=#6c8ebf;fontSize=8;" parent="1" vertex="1">
          <mxGeometry x="214" y="743" width="120" height="20" as="geometry" />
        </mxCell>
        <mxCell id="yK7P3pugAWHu_ZcFfTPJ-134" value="Redis" style="rounded=0;whiteSpace=wrap;html=1;fillColor=#dae8fc;strokeColor=#6c8ebf;fontSize=8;" parent="1" vertex="1">
          <mxGeometry x="341" y="743" width="113" height="20" as="geometry" />
        </mxCell>
        <mxCell id="yK7P3pugAWHu_ZcFfTPJ-135" value="" style="group" parent="1" vertex="1" connectable="0">
          <mxGeometry x="259" y="498" width="487" height="177" as="geometry" />
        </mxCell>
        <mxCell id="yK7P3pugAWHu_ZcFfTPJ-136" value="API网关服务" style="rounded=0;whiteSpace=wrap;html=1;fillColor=#dae8fc;strokeColor=#6c8ebf;fontSize=8;verticalAlign=middle;flipH=1;" parent="yK7P3pugAWHu_ZcFfTPJ-135" vertex="1">
          <mxGeometry y="-5" width="84.81481481481481" height="27.36842105263158" as="geometry" />
        </mxCell>
        <mxCell id="yK7P3pugAWHu_ZcFfTPJ-137" value="API认证服务" style="rounded=0;whiteSpace=wrap;html=1;fillColor=#dae8fc;strokeColor=#6c8ebf;fontSize=8;verticalAlign=middle;flipH=1;" parent="yK7P3pugAWHu_ZcFfTPJ-135" vertex="1">
          <mxGeometry y="44.315789473684205" width="84.81481481481481" height="27.36842105263158" as="geometry" />
        </mxCell>
        <mxCell id="yK7P3pugAWHu_ZcFfTPJ-138" value="生产服务" style="rounded=0;whiteSpace=wrap;html=1;fillColor=#dae8fc;strokeColor=#6c8ebf;fontSize=8;verticalAlign=middle;" parent="yK7P3pugAWHu_ZcFfTPJ-135" vertex="1">
          <mxGeometry x="186.5925925925926" y="-5" width="84.81481481481481" height="27.36842105263158" as="geometry" />
        </mxCell>
        <mxCell id="yK7P3pugAWHu_ZcFfTPJ-139" value="帐号服务" style="rounded=0;whiteSpace=wrap;html=1;fillColor=#dae8fc;strokeColor=#6c8ebf;fontSize=8;verticalAlign=middle;" parent="yK7P3pugAWHu_ZcFfTPJ-135" vertex="1">
          <mxGeometry x="279.8888888888889" y="-5" width="84.81481481481481" height="27.36842105263158" as="geometry" />
        </mxCell>
        <mxCell id="yK7P3pugAWHu_ZcFfTPJ-140" value="tspAgent" style="rounded=0;whiteSpace=wrap;html=1;fillColor=#dae8fc;strokeColor=#6c8ebf;fontSize=8;verticalAlign=middle;" parent="yK7P3pugAWHu_ZcFfTPJ-135" vertex="1">
          <mxGeometry x="373.1851851851852" y="-5" width="84.81481481481481" height="27.36842105263158" as="geometry" />
        </mxCell>
        <mxCell id="yK7P3pugAWHu_ZcFfTPJ-141" value="OMS认证服务" style="rounded=0;whiteSpace=wrap;html=1;fillColor=#dae8fc;strokeColor=#6c8ebf;fontSize=8;verticalAlign=middle;" parent="yK7P3pugAWHu_ZcFfTPJ-135" vertex="1">
          <mxGeometry x="186.5925925925926" y="91.63157894736841" width="84.81481481481481" height="27.36842105263158" as="geometry" />
        </mxCell>
        <mxCell id="yK7P3pugAWHu_ZcFfTPJ-142" value="CCC服务" style="rounded=0;whiteSpace=wrap;html=1;fillColor=#dae8fc;strokeColor=#6c8ebf;fontSize=8;verticalAlign=middle;flipH=1;" parent="yK7P3pugAWHu_ZcFfTPJ-135" vertex="1">
          <mxGeometry x="93.2962962962963" y="44.315789473684205" width="84.81481481481481" height="27.36842105263158" as="geometry" />
        </mxCell>
        <mxCell id="yK7P3pugAWHu_ZcFfTPJ-143" value="ICCE服务" style="rounded=0;whiteSpace=wrap;html=1;fillColor=#dae8fc;strokeColor=#6c8ebf;fontSize=8;verticalAlign=middle;flipH=1;" parent="yK7P3pugAWHu_ZcFfTPJ-135" vertex="1">
          <mxGeometry x="186.5925925925926" y="44.315789473684205" width="84.81481481481481" height="27.36842105263158" as="geometry" />
        </mxCell>
        <mxCell id="yK7P3pugAWHu_ZcFfTPJ-144" value="钥匙服务" style="rounded=0;whiteSpace=wrap;html=1;fillColor=#dae8fc;strokeColor=#6c8ebf;fontSize=8;verticalAlign=middle;flipH=1;" parent="yK7P3pugAWHu_ZcFfTPJ-135" vertex="1">
          <mxGeometry x="93.29518518518523" y="-4.368421052631589" width="84.81481481481481" height="27.36842105263158" as="geometry" />
        </mxCell>
        <mxCell id="yK7P3pugAWHu_ZcFfTPJ-145" value="OMS前端服务" style="rounded=0;whiteSpace=wrap;html=1;fillColor=#dae8fc;strokeColor=#6c8ebf;fontSize=8;verticalAlign=middle;" parent="yK7P3pugAWHu_ZcFfTPJ-135" vertex="1">
          <mxGeometry y="91.63157894736841" width="84.81481481481481" height="27.36842105263158" as="geometry" />
        </mxCell>
        <mxCell id="yK7P3pugAWHu_ZcFfTPJ-146" value="单点登录服务" style="rounded=0;whiteSpace=wrap;html=1;fillColor=#dae8fc;strokeColor=#6c8ebf;fontSize=8;verticalAlign=middle;" parent="yK7P3pugAWHu_ZcFfTPJ-135" vertex="1">
          <mxGeometry x="279.8888888888889" y="91.63157894736841" width="84.81481481481481" height="27.36842105263158" as="geometry" />
        </mxCell>
        <mxCell id="yK7P3pugAWHu_ZcFfTPJ-147" value="OMS系统管理" style="rounded=0;whiteSpace=wrap;html=1;fillColor=#dae8fc;strokeColor=#6c8ebf;fontSize=8;verticalAlign=middle;" parent="yK7P3pugAWHu_ZcFfTPJ-135" vertex="1">
          <mxGeometry x="93.2962962962963" y="91.63157894736841" width="84.81481481481481" height="27.36842105263158" as="geometry" />
        </mxCell>
        <mxCell id="yK7P3pugAWHu_ZcFfTPJ-148" value="PKI代理服务" style="rounded=0;whiteSpace=wrap;html=1;fillColor=#dae8fc;strokeColor=#6c8ebf;fontSize=8;verticalAlign=middle;" parent="yK7P3pugAWHu_ZcFfTPJ-135" vertex="1">
          <mxGeometry x="373.1851851851852" y="44.315789473684205" width="84.81481481481481" height="27.36842105263158" as="geometry" />
        </mxCell>
        <mxCell id="yK7P3pugAWHu_ZcFfTPJ-149" value="trustKey服务" style="rounded=0;whiteSpace=wrap;html=1;fillColor=#dae8fc;strokeColor=#6c8ebf;fontSize=8;verticalAlign=middle;flipH=1;" parent="yK7P3pugAWHu_ZcFfTPJ-135" vertex="1">
          <mxGeometry x="279.8888888888889" y="44.315789473684205" width="84.81481481481481" height="27.36842105263158" as="geometry" />
        </mxCell>
        <mxCell id="yK7P3pugAWHu_ZcFfTPJ-165" value="KTS服务" style="rounded=0;whiteSpace=wrap;html=1;fillColor=#dae8fc;strokeColor=#6c8ebf;fontSize=8;verticalAlign=middle;" parent="yK7P3pugAWHu_ZcFfTPJ-135" vertex="1">
          <mxGeometry x="373.1862962962963" y="90.63" width="84.81481481481481" height="27.36842105263158" as="geometry" />
        </mxCell>
        <mxCell id="yK7P3pugAWHu_ZcFfTPJ-166" value="&lt;font style=&quot;font-size: 8px;&quot;&gt;VPC网络&lt;/font&gt;" style="rounded=0;whiteSpace=wrap;html=1;fillColor=none;strokeColor=none;fontSize=8;" parent="1" vertex="1">
          <mxGeometry x="190" y="370" width="66" height="20" as="geometry" />
        </mxCell>
        <mxCell id="yK7P3pugAWHu_ZcFfTPJ-167" value="&lt;font style=&quot;font-size: 8px;&quot;&gt;WAF&lt;/font&gt;" style="rounded=0;whiteSpace=wrap;html=1;fillColor=none;strokeColor=none;fontSize=8;" parent="1" vertex="1">
          <mxGeometry x="443.5" y="325" width="66" height="20" as="geometry" />
        </mxCell>
        <mxCell id="yK7P3pugAWHu_ZcFfTPJ-168" value="" style="group" parent="1" vertex="1" connectable="0">
          <mxGeometry x="250" y="630" width="480" height="90" as="geometry" />
        </mxCell>
        <mxCell id="yK7P3pugAWHu_ZcFfTPJ-169" value="" style="rounded=0;whiteSpace=wrap;html=1;fillColor=#d5e8d4;strokeColor=none;fontSize=8;" parent="yK7P3pugAWHu_ZcFfTPJ-168" vertex="1">
          <mxGeometry y="10" width="480" height="55" as="geometry" />
        </mxCell>
        <mxCell id="yK7P3pugAWHu_ZcFfTPJ-170" value="日志查询服务" style="rounded=0;whiteSpace=wrap;html=1;fillColor=#dae8fc;strokeColor=#6c8ebf;fontSize=8;flipH=0;flipV=1;" parent="yK7P3pugAWHu_ZcFfTPJ-168" vertex="1">
          <mxGeometry x="15" y="30.199999999999996" width="75" height="22" as="geometry" />
        </mxCell>
        <mxCell id="yK7P3pugAWHu_ZcFfTPJ-171" value="日志告警" style="rounded=0;whiteSpace=wrap;html=1;strokeColor=none;fillColor=none;fontSize=8;" parent="yK7P3pugAWHu_ZcFfTPJ-168" vertex="1">
          <mxGeometry y="6.199999999999999" width="70" height="22" as="geometry" />
        </mxCell>
        <mxCell id="yK7P3pugAWHu_ZcFfTPJ-172" value="链路跟踪" style="rounded=0;whiteSpace=wrap;html=1;fillColor=#dae8fc;strokeColor=#6c8ebf;fontSize=8;flipH=0;flipV=1;" parent="yK7P3pugAWHu_ZcFfTPJ-168" vertex="1">
          <mxGeometry x="112" y="30.199999999999996" width="64" height="22" as="geometry" />
        </mxCell>
        <mxCell id="yK7P3pugAWHu_ZcFfTPJ-173" value="告警服务" style="rounded=0;whiteSpace=wrap;html=1;fillColor=#dae8fc;strokeColor=#6c8ebf;fontSize=8;flipH=0;flipV=1;" parent="yK7P3pugAWHu_ZcFfTPJ-168" vertex="1">
          <mxGeometry x="392" y="30.199999999999996" width="73" height="22" as="geometry" />
        </mxCell>
        <mxCell id="yK7P3pugAWHu_ZcFfTPJ-174" value="埋点解析" style="rounded=0;whiteSpace=wrap;html=1;fillColor=#dae8fc;strokeColor=#6c8ebf;fontSize=8;flipH=0;flipV=1;" parent="yK7P3pugAWHu_ZcFfTPJ-168" vertex="1">
          <mxGeometry x="203" y="30.199999999999996" width="73" height="22" as="geometry" />
        </mxCell>
        <mxCell id="yK7P3pugAWHu_ZcFfTPJ-180" value="监控服务" style="rounded=0;whiteSpace=wrap;html=1;fillColor=#dae8fc;strokeColor=#6c8ebf;fontSize=8;flipH=0;flipV=1;" parent="yK7P3pugAWHu_ZcFfTPJ-168" vertex="1">
          <mxGeometry x="297" y="30.200000000000045" width="73" height="22" as="geometry" />
        </mxCell>
        <mxCell id="c5524-JZ_snfG1hgte_v-10" value="" style="shape=doubleArrow;whiteSpace=wrap;html=1;rotation=90;strokeColor=#6E6E6E;" parent="yK7P3pugAWHu_ZcFfTPJ-168" vertex="1">
          <mxGeometry x="250" y="80" width="39.25" height="10" as="geometry" />
        </mxCell>
        <mxCell id="yK7P3pugAWHu_ZcFfTPJ-181" value="对象存储" style="rounded=0;whiteSpace=wrap;html=1;fillColor=#dae8fc;strokeColor=#6c8ebf;fontSize=8;" parent="1" vertex="1">
          <mxGeometry x="605" y="743" width="55" height="20" as="geometry" />
        </mxCell>
        <mxCell id="yK7P3pugAWHu_ZcFfTPJ-182" value="" style="rounded=0;whiteSpace=wrap;html=1;fillColor=#ffe6cc;strokeColor=none;fontSize=8;" parent="1" vertex="1">
          <mxGeometry x="670" y="718" width="100" height="61" as="geometry" />
        </mxCell>
        <mxCell id="yK7P3pugAWHu_ZcFfTPJ-183" value="Kafka" style="rounded=0;whiteSpace=wrap;html=1;fillColor=#dae8fc;strokeColor=#6c8ebf;fontSize=8;" parent="1" vertex="1">
          <mxGeometry x="680.02" y="743" width="81" height="20" as="geometry" />
        </mxCell>
        <mxCell id="yK7P3pugAWHu_ZcFfTPJ-184" value="消息队列" style="rounded=0;whiteSpace=wrap;html=1;strokeColor=none;fillColor=none;fontSize=8;" parent="1" vertex="1">
          <mxGeometry x="663" y="718" width="66" height="20" as="geometry" />
        </mxCell>
        <mxCell id="yK7P3pugAWHu_ZcFfTPJ-189" value="内&lt;div&gt;网&lt;/div&gt;&lt;div&gt;负&lt;/div&gt;&lt;div&gt;载&lt;/div&gt;&lt;div&gt;均&lt;/div&gt;&lt;div&gt;衡&lt;/div&gt;" style="rounded=0;whiteSpace=wrap;html=1;fillColor=#dae8fc;strokeColor=#6c8ebf;fontSize=8;align=center;" parent="1" vertex="1">
          <mxGeometry x="799" y="426" width="20" height="300" as="geometry" />
        </mxCell>
        <mxCell id="yK7P3pugAWHu_ZcFfTPJ-191" value="公网" style="rounded=0;whiteSpace=wrap;html=1;fillColor=none;strokeColor=none;fontSize=8;" parent="1" vertex="1">
          <mxGeometry x="184" y="204" width="66" height="20" as="geometry" />
        </mxCell>
        <mxCell id="yK7P3pugAWHu_ZcFfTPJ-192" value="" style="rounded=0;whiteSpace=wrap;html=1;fillColor=#ffe6cc;strokeColor=none;fontSize=8;" parent="1" vertex="1">
          <mxGeometry x="395" y="224" width="137" height="58" as="geometry" />
        </mxCell>
        <mxCell id="yK7P3pugAWHu_ZcFfTPJ-193" value="DK-SDK" style="rounded=0;whiteSpace=wrap;html=1;fillColor=#dae8fc;strokeColor=#6c8ebf;fontSize=8;" parent="1" vertex="1">
          <mxGeometry x="439" y="252.5" width="70" height="20" as="geometry" />
        </mxCell>
        <mxCell id="yK7P3pugAWHu_ZcFfTPJ-198" value="APP" style="rounded=0;whiteSpace=wrap;html=1;fillColor=none;strokeColor=none;fontSize=8;" parent="1" vertex="1">
          <mxGeometry x="394" y="224" width="66" height="20" as="geometry" />
        </mxCell>
        <mxCell id="yK7P3pugAWHu_ZcFfTPJ-199" value="&lt;font style=&quot;font-size: 8px;&quot;&gt;DK-Server&lt;/font&gt;" style="rounded=0;whiteSpace=wrap;html=1;fillColor=none;strokeColor=none;fontSize=8;" parent="1" vertex="1">
          <mxGeometry x="201" y="423" width="66" height="20" as="geometry" />
        </mxCell>
        <mxCell id="yK7P3pugAWHu_ZcFfTPJ-200" value="" style="rounded=0;whiteSpace=wrap;html=1;fillColor=#ffe6cc;strokeColor=none;fontSize=8;" parent="1" vertex="1">
          <mxGeometry x="858.25" y="377.12" width="189" height="179" as="geometry" />
        </mxCell>
        <mxCell id="yK7P3pugAWHu_ZcFfTPJ-201" value="TSP" style="rounded=0;whiteSpace=wrap;html=1;fillColor=#dae8fc;strokeColor=#6c8ebf;fontSize=8;" parent="1" vertex="1">
          <mxGeometry x="957.25" y="397.12" width="60" height="20" as="geometry" />
        </mxCell>
        <mxCell id="yK7P3pugAWHu_ZcFfTPJ-202" value="AppServer" style="rounded=0;whiteSpace=wrap;html=1;fillColor=#dae8fc;strokeColor=#6c8ebf;fontSize=8;" parent="1" vertex="1">
          <mxGeometry x="957.25" y="456.62" width="60" height="20" as="geometry" />
        </mxCell>
        <mxCell id="yK7P3pugAWHu_ZcFfTPJ-205" value="MES" style="rounded=0;whiteSpace=wrap;html=1;fillColor=#dae8fc;strokeColor=#6c8ebf;fontSize=8;" parent="1" vertex="1">
          <mxGeometry x="957.25" y="511.12" width="60" height="20" as="geometry" />
        </mxCell>
        <mxCell id="yK7P3pugAWHu_ZcFfTPJ-212" value="苹果CCC" style="rounded=0;whiteSpace=wrap;html=1;fillColor=#dae8fc;strokeColor=#6c8ebf;fontSize=8;" parent="1" vertex="1">
          <mxGeometry x="937.25" y="600" width="100" height="20" as="geometry" />
        </mxCell>
        <mxCell id="c5524-JZ_snfG1hgte_v-5" value="" style="shape=doubleArrow;whiteSpace=wrap;html=1;rotation=90;strokeColor=#6E6E6E;" parent="1" vertex="1">
          <mxGeometry x="461.25" y="300.25" width="31.5" height="10" as="geometry" />
        </mxCell>
        <mxCell id="c5524-JZ_snfG1hgte_v-6" value="" style="shape=doubleArrow;whiteSpace=wrap;html=1;rotation=90;strokeColor=#6E6E6E;" parent="1" vertex="1">
          <mxGeometry x="456.87" y="358.88" width="39.25" height="10" as="geometry" />
        </mxCell>
        <mxCell id="c5524-JZ_snfG1hgte_v-8" value="" style="shape=doubleArrow;whiteSpace=wrap;html=1;rotation=-180;strokeColor=#6E6E6E;" parent="1" vertex="1">
          <mxGeometry x="754" y="560" width="39.25" height="10" as="geometry" />
        </mxCell>
        <mxCell id="c5524-JZ_snfG1hgte_v-9" value="" style="shape=doubleArrow;whiteSpace=wrap;html=1;rotation=90;strokeColor=#6E6E6E;" parent="1" vertex="1">
          <mxGeometry x="453" y="423.5" width="48.5" height="10" as="geometry" />
        </mxCell>
        <mxCell id="c5524-JZ_snfG1hgte_v-13" value="&lt;div&gt;&lt;font style=&quot;font-size: 6px;&quot;&gt;&lt;br&gt;&lt;/font&gt;&lt;/div&gt;&lt;font style=&quot;font-size: 6px;&quot;&gt;内网&lt;/font&gt;" style="shape=doubleArrow;whiteSpace=wrap;html=1;rotation=0;arrowWidth=0.3767709607275833;arrowSize=0.2057348224433942;strokeColor=#6E6E6E;" parent="1" vertex="1">
          <mxGeometry x="819" y="472" width="40" height="10" as="geometry" />
        </mxCell>
        <mxCell id="c5524-JZ_snfG1hgte_v-14" value="主机厂服务" style="rounded=0;whiteSpace=wrap;html=1;fillColor=none;strokeColor=none;fontSize=8;" parent="1" vertex="1">
          <mxGeometry x="858.25" y="377.12" width="66" height="20" as="geometry" />
        </mxCell>
        <mxCell id="c5524-JZ_snfG1hgte_v-19" value="&lt;div&gt;&lt;font style=&quot;font-size: 6px;&quot;&gt;&lt;br&gt;&lt;/font&gt;&lt;/div&gt;&lt;span style=&quot;font-size: 6px;&quot;&gt;专线&lt;/span&gt;" style="shape=doubleArrow;whiteSpace=wrap;html=1;rotation=0;arrowWidth=0.3767709607275833;arrowSize=0.2057348224433942;strokeColor=#6E6E6E;" parent="1" vertex="1">
          <mxGeometry x="819" y="640" width="40" height="10" as="geometry" />
        </mxCell>
        <mxCell id="usgHkG9U_-0uMdtEC2-E-1" value="华为ICCE" style="rounded=0;whiteSpace=wrap;html=1;fillColor=#dae8fc;strokeColor=#6c8ebf;fontSize=8;" vertex="1" parent="1">
          <mxGeometry x="937.25" y="680" width="100" height="20" as="geometry" />
        </mxCell>
      </root>
    </mxGraphModel>
  </diagram>
</mxfile>
